<svg xmlns="http://www.w3.org/2000/svg" width="900" height="560" viewBox="0 0 900 560" role="img" aria-labelledby="title desc">
  <title id="title">Five digit OTP reset illustration</title>
  <desc id="desc">A secure password reset card showing a five digit one-time password workflow.</desc>
  <defs>
    <linearGradient id="main" x1="0" x2="1" y1="0" y2="1">
      <stop offset="0" stop-color="#4F46E5"/>
      <stop offset="1" stop-color="#8B5CF6"/>
    </linearGradient>
    <filter id="softShadow" x="-20%" y="-20%" width="140%" height="140%">
      <feDropShadow dx="0" dy="20" stdDeviation="20" flood-color="#111827" flood-opacity=".16"/>
    </filter>
  </defs>
  <rect width="900" height="560" rx="36" fill="#F9FAFB"/>
  <circle cx="758" cy="104" r="82" fill="#DDD6FE"/>
  <circle cx="132" cy="442" r="96" fill="#E0E7FF"/>
  <rect x="166" y="86" width="568" height="388" rx="32" fill="#FFFFFF" filter="url(#softShadow)"/>
  <rect x="214" y="134" width="144" height="18" rx="9" fill="#111827"/>
  <rect x="214" y="170" width="270" height="12" rx="6" fill="#9CA3AF"/>
  <rect x="214" y="216" width="472" height="72" rx="22" fill="#EEF2FF"/>
  <circle cx="258" cy="252" r="20" fill="url(#main)"/>
  <rect x="294" y="238" width="176" height="14" rx="7" fill="#4F46E5"/>
  <rect x="294" y="262" width="112" height="10" rx="5" fill="#818CF8"/>
  <g transform="translate(214 332)">
    <rect width="64" height="64" rx="18" fill="#4F46E5"/>
    <rect x="88" width="64" height="64" rx="18" fill="#6366F1"/>
    <rect x="176" width="64" height="64" rx="18" fill="#8B5CF6"/>
    <rect x="264" width="64" height="64" rx="18" fill="#4F46E5"/>
    <rect x="352" width="64" height="64" rx="18" fill="#6366F1"/>
    <text x="32" y="42" text-anchor="middle" font-family="Inter, Arial, sans-serif" font-size="28" font-weight="800" fill="#FFFFFF">5</text>
    <text x="120" y="42" text-anchor="middle" font-family="Inter, Arial, sans-serif" font-size="28" font-weight="800" fill="#FFFFFF">2</text>
    <text x="208" y="42" text-anchor="middle" font-family="Inter, Arial, sans-serif" font-size="28" font-weight="800" fill="#FFFFFF">8</text>
    <text x="296" y="42" text-anchor="middle" font-family="Inter, Arial, sans-serif" font-size="28" font-weight="800" fill="#FFFFFF">4</text>
    <text x="384" y="42" text-anchor="middle" font-family="Inter, Arial, sans-serif" font-size="28" font-weight="800" fill="#FFFFFF">1</text>
  </g>
  <rect x="214" y="426" width="190" height="18" rx="9" fill="#16A34A"/>
  <path d="M630 156c0-38-31-69-69-69s-69 31-69 69v38h138v-38z" fill="none" stroke="#4F46E5" stroke-width="24" stroke-linecap="round"/>
  <rect x="472" y="188" width="178" height="132" rx="26" fill="url(#main)"/>
  <circle cx="561" cy="248" r="22" fill="#FFFFFF"/>
  <rect x="551" y="266" width="20" height="34" rx="10" fill="#FFFFFF"/>
</svg>
