<svg xmlns="http://www.w3.org/2000/svg" width="1200" height="800" viewBox="0 0 1200 800" role="img" aria-labelledby="title desc">
  <title id="title">QuizForge dashboard preview</title>
  <desc id="desc">A polished online quiz dashboard illustration with progress cards, a chart, and quiz activity.</desc>
  <defs>
    <linearGradient id="bg" x1="0" x2="1" y1="0" y2="1">
      <stop offset="0" stop-color="#4F46E5"/>
      <stop offset="1" stop-color="#8B5CF6"/>
    </linearGradient>
    <linearGradient id="card" x1="0" x2="1">
      <stop offset="0" stop-color="#FFFFFF"/>
      <stop offset="1" stop-color="#F8FAFC"/>
    </linearGradient>
    <filter id="shadow" x="-20%" y="-20%" width="140%" height="140%">
      <feDropShadow dx="0" dy="24" stdDeviation="26" flood-color="#111827" flood-opacity=".18"/>
    </filter>
  </defs>
  <rect width="1200" height="800" rx="54" fill="#F9FAFB"/>
  <rect x="54" y="54" width="1092" height="692" rx="40" fill="url(#bg)"/>
  <circle cx="1030" cy="150" r="96" fill="#FFFFFF" opacity=".16"/>
  <circle cx="164" cy="660" r="128" fill="#FFFFFF" opacity=".12"/>
  <rect x="134" y="116" width="932" height="568" rx="34" fill="url(#card)" filter="url(#shadow)"/>
  <rect x="134" y="116" width="240" height="568" rx="34" fill="#111827"/>
  <circle cx="204" cy="190" r="32" fill="#6366F1"/>
  <rect x="252" y="171" width="86" height="16" rx="8" fill="#FFFFFF"/>
  <rect x="252" y="199" width="58" height="10" rx="5" fill="#9CA3AF"/>
  <rect x="178" y="276" width="150" height="40" rx="14" fill="#4F46E5"/>
  <rect x="178" y="342" width="130" height="14" rx="7" fill="#6B7280"/>
  <rect x="178" y="388" width="112" height="14" rx="7" fill="#6B7280"/>
  <rect x="178" y="434" width="142" height="14" rx="7" fill="#6B7280"/>
  <rect x="418" y="162" width="280" height="126" rx="24" fill="#EEF2FF"/>
  <rect x="730" y="162" width="280" height="126" rx="24" fill="#F5F3FF"/>
  <rect x="454" y="202" width="92" height="18" rx="9" fill="#4F46E5"/>
  <rect x="454" y="236" width="172" height="14" rx="7" fill="#818CF8"/>
  <rect x="766" y="202" width="100" height="18" rx="9" fill="#8B5CF6"/>
  <rect x="766" y="236" width="158" height="14" rx="7" fill="#A78BFA"/>
  <rect x="418" y="328" width="392" height="282" rx="26" fill="#FFFFFF" stroke="#E5E7EB"/>
  <rect x="850" y="328" width="160" height="282" rx="26" fill="#FFFFFF" stroke="#E5E7EB"/>
  <rect x="464" y="526" width="38" height="48" rx="12" fill="#C7D2FE"/>
  <rect x="526" y="478" width="38" height="96" rx="12" fill="#A5B4FC"/>
  <rect x="588" y="430" width="38" height="144" rx="12" fill="#818CF8"/>
  <rect x="650" y="390" width="38" height="184" rx="12" fill="#6366F1"/>
  <rect x="712" y="454" width="38" height="120" rx="12" fill="#8B5CF6"/>
  <rect x="458" y="370" width="176" height="18" rx="9" fill="#111827"/>
  <rect x="458" y="402" width="244" height="12" rx="6" fill="#9CA3AF"/>
  <circle cx="930" cy="408" r="34" fill="#4F46E5"/>
  <rect x="894" y="468" width="72" height="14" rx="7" fill="#111827"/>
  <rect x="888" y="502" width="84" height="10" rx="5" fill="#9CA3AF"/>
  <rect x="888" y="536" width="84" height="36" rx="18" fill="#EEF2FF"/>
</svg>
